Coordinates
version=1
nRows=17
nColumns=33
inDegrees=yes

Units are S.I. units (second, meters, Newtons, ...)
Angles are in degrees.

endheader
time	ground_thorax_rot_x	ground_thorax_rot_y	ground_thorax_rot_z	ground_thorax_tx	ground_thorax_ty	ground_thorax_tz	clav_prot_r	clav_elev_r	scapula_abduction_r	scapula_elevation_r	scapula_upward_rot_r	scapula_winging_r	shoulder_elv_r	plane_of_elev_r	axial_rot_r	elbow_flexion_r	pro_sup_r	wrist_flex_r	wrist_dev_r	clav_prot_l	clav_elev_l	scapula_abduction_l	scapula_elevation_l	scapula_upward_rot_l	scapula_winging_l	shoulder_elv_l	plane_of_elev_l	axial_rot_l	elbow_flexion_l	pro_sup_l	wrist_flex_l	wrist_dev_l
      4.82000000	     -4.20019354	      2.48348376	     12.47754307	     -0.10800886	      1.02569604	      0.01121731	     12.79097130	    -13.01688324	     28.42265146	     -9.95756637	     11.67313145	     -6.79838175	    -11.05627626	    -61.67680087	    120.54996378	    -67.27109115	   -154.53326206	      5.18302586	      8.00699336	     21.07763640	     -9.19596450	    -31.08817943	     -9.52589485	    -28.70675183	      8.75826955	     62.15935283	     -6.22039875	     11.96603217	     34.95593286	     18.39571219	     24.39049840	     -7.99644091
      4.83000000	     -4.41530622	      2.45234779	     12.26805995	     -0.10732485	      1.02627319	      0.01095494	     12.97333963	    -13.42540689	     29.13023187	    -10.55215727	     12.37680498	     -6.82367150	    -10.34650025	    -60.98710243	    120.63657593	    -65.44818786	   -154.26759867	      4.77304132	      8.18098757	     21.37544419	     -9.65714331	    -31.53742203	     -8.88324209	    -28.23201112	      8.98843322	     62.32430255	     -5.67453352	     12.16886700	     32.87354428	     18.72465655	     24.26665144	     -7.70686458
      4.84000000	     -4.60345530	      2.40182315	     12.03709457	     -0.10659736	      1.02660842	      0.01059804	     13.12273311	    -13.64490471	     29.89261573	    -11.03011911	     13.24425649	     -6.96700060	     -9.66259652	    -60.31393857	    120.93034040	    -63.55611768	   -153.90348843	      4.36747975	      8.39653123	     21.71313101	     -9.99634244	    -32.06349554	     -8.34160881	    -27.74741071	      9.27160860	     62.34349250	     -4.98428299	     12.56718425	     30.73577473	     19.07710365	     23.99602940	     -7.49494733
      4.85000000	     -4.47077374	      2.31836765	     12.07246807	     -0.10608691	      1.02604323	      0.01030057	     13.29907796	    -12.92986071	     30.92785101	    -10.78046067	     14.43101539	     -7.75293673	     -8.92629447	    -59.57588349	    121.91267330	    -61.42673020	   -152.69474893	      4.01100541	      8.75328468	     22.32037922	    -10.09939140	    -33.06695048	     -8.13242073	    -27.56373258	      9.84804752	     61.62464783	     -3.72268198	     13.93052354	     28.45929181	     19.78163597	     22.87055633	     -7.90760160
      4.86000000	     -4.70659218	      2.29950439	     11.86660439	     -0.10543530	      1.02646197	      0.01011345	     13.58034546	    -13.21358929	     31.73457075	    -11.20649620	     15.01092348	     -7.89982948	     -8.26487750	    -58.73670936	    121.85081285	    -59.55254333	   -152.28156260	      3.64768311	      8.80158558	     22.66520399	    -10.52029002	    -33.59633075	     -7.55776274	    -27.15277865	     10.10610640	     61.88989076	     -3.30664205	     13.87458370	     26.58141068	     20.19120713	     22.64229184	     -7.71725920
      4.87000000	     -4.53250996	      2.21684709	     12.03160867	     -0.10540400	      1.02571686	      0.01008068	     14.08520359	    -12.23417116	     33.23201287	    -10.66321694	     16.05457726	     -9.05994411	     -7.86279711	    -57.77441084	    122.22176052	    -57.30565498	   -150.06215222	      3.61849979	      8.65001587	     23.43940200	    -10.79126028	    -34.85242384	     -7.32513441	    -27.24461678	     10.78363032	     61.42551608	     -2.25401699	     14.97763654	     24.51045134	     21.42111137	     20.99976881	     -8.50172762
      4.88000000	     -4.76809010	      2.17230693	     12.08070545	     -0.10456520	      1.02628607	      0.00979989	     14.23784099	    -12.63958192	     33.81681735	    -11.18331155	     16.61042172	     -9.03885086	     -7.46091080	    -57.33012288	    122.21020267	    -55.42363927	   -149.81164210	      3.24932450	      8.73174378	     23.64337766	    -11.17692239	    -35.14514282	     -6.81430661	    -26.87997812	     10.89480567	     61.54284184	     -2.00348339	     14.95489671	     22.77760230	     21.68661355	     20.96782807	     -8.18385234
      4.89000000	     -4.65134704	      2.04748012	     11.64403148	     -0.10368734	      1.02631328	      0.00969613	     14.33242869	    -12.12537386	     34.96763231	    -11.19731301	     18.14021087	     -9.71220990	     -7.16602395	    -56.74586976	    122.49095874	    -53.36209435	   -148.31605037	      3.19952007	      8.33048847	     24.07656423	    -11.36169022	    -35.84291238	     -6.42403758	    -26.43063070	     11.30425070	     61.28724663	     -1.04321907	     16.21021091	     20.77394040	     22.41824613	     19.67625271	     -8.27440422
      4.90000000	     -4.86817912	      1.99580614	     11.47635429	     -0.10295075	      1.02675394	      0.00959767	     14.60162481	    -12.34817770	     35.75448662	    -11.54763678	     18.70153255	     -9.88461313	     -6.67267164	    -56.04991602	    122.32788056	    -51.55654360	   -147.89627594	      2.88907535	      8.26360680	     24.35121068	    -11.67823760	    -36.26023866	     -5.97021358	    -26.06478562	     11.49953789	     61.53526895	     -0.77605127	     15.97717949	     19.21785144	     22.80293177	     19.41464593	     -8.07202254
      4.91000000	     -4.59540521	      1.88433735	     11.39744188	     -0.10234502	      1.02637078	      0.00961018	     14.93019203	    -11.37772640	     37.24529179	    -11.11282866	     20.12309875	    -10.98473077	     -6.68652362	    -55.48598471	    122.33194963	    -49.28688658	   -145.82734919	      3.05802067	      7.28301277	     24.81353219	    -11.87568067	    -36.99907890	     -5.69183446	    -25.87768011	     11.90926289	     61.06719337	      0.06133279	     17.03704691	     17.61171073	     23.83838591	     17.35302980	     -8.40446810
      4.92000000	     -4.79906713	      1.87932741	     11.38357066	     -0.10158659	      1.02690463	      0.00942802	     15.17198219	    -11.67016537	     37.90556604	    -11.47841379	     20.55604410	    -11.07366985	     -6.27526723	    -55.04730486	    122.15912172	    -47.55442342	   -145.56059839	      2.73061902	      7.29607968	     25.00170555	    -12.15488839	    -37.27695332	     -5.31431249	    -25.59298585	     12.01991109	     61.21945999	      0.24952231	     16.69366893	     16.32770886	     24.12576763	     17.26809284	     -8.19825278
      4.93000000	     -4.90292472	      1.84769992	     11.22154285	     -0.10079395	      1.02745630	      0.00924702	     15.34308598	    -11.86122389	     38.58362795	    -11.81079816	     21.18002418	    -11.20259422	     -5.79948695	    -54.62492891	    122.03907364	    -45.80804487	   -145.21611704	      2.41786900	      7.18157855	     25.20074040	    -12.37237838	    -37.58057774	     -4.98638284	    -25.30304994	     12.16192732	     61.30268796	      0.54922187	     16.51370782	     15.15659405	     24.42058668	     17.00264488	     -8.00537802
      4.94000000	     -4.56921415	      1.62051956	     11.03820123	     -0.10017989	      1.02678058	      0.00952493	     15.75585052	    -10.51456684	     40.39698095	    -11.09661302	     22.82459893	    -12.63764145	     -6.17787518	    -54.06561958	    121.80628837	    -43.62715758	   -142.83407381	      2.81171938	      5.35027615	     25.55939936	    -12.38509100	    -38.17407380	     -4.85803964	    -25.08728324	     12.53503262	     60.79252926	      1.23501169	     17.43369728	     14.00410926	     25.54646915	     14.26623543	     -8.23987117
      4.95000000	     -4.70798703	      1.60185498	     10.93602742	     -0.09949021	      1.02732428	      0.00941655	     15.99188316	    -10.73891895	     41.05554847	    -11.39433099	     23.26029307	    -12.76724762	     -5.79723691	    -53.72658223	    121.57420500	    -42.18991871	   -142.59816075	      2.54607531	      5.36272173	     25.70064401	    -12.55744929	    -38.38801875	     -4.60398210	    -24.86598922	     12.62830548	     60.93127752	      1.37708936	     17.00622193	     13.11164533	     25.76853597	     14.22268979	     -8.11739969
      4.96000000	     -4.80890506	      1.59017682	     10.77422696	     -0.09879667	      1.02778338	      0.00927625	     16.17532934	    -10.83060714	     41.73023669	    -11.61619431	     23.83547534	    -12.95792649	     -5.47353289	    -53.44591546	    121.44817877	    -40.76389845	   -142.23771012	      2.30004994	      5.19842892	     25.84011629	    -12.63967837	    -38.61146086	     -4.43766952	    -24.67000050	     12.75050485	     60.99940656	      1.57779976	     16.68648063	     12.42808432	     25.98351424	     13.99632130	     -8.01842339
      4.97000000	     -4.43294356	      1.34164749	     10.72846518	     -0.09820626	      1.02703854	      0.00962799	     16.74126718	     -9.53670517	     43.66419643	    -10.87246215	     25.26795527	    -14.43303178	     -6.13871091	    -53.19510754	    120.65266882	    -39.02220825	   -139.76882822	      2.64340144	      3.18812901	     25.91069562	    -12.56466212	    -38.75008852	     -4.39114536	    -24.43981068	     12.87033863	     60.40227013	      1.86758836	     16.85542626	     11.91135354	     26.49308091	     12.07873889	     -8.15422072
      4.98000000	     -4.49222522	      1.31915893	     10.58220042	     -0.09752756	      1.02753264	      0.00949416	     16.87923507	     -9.68122514	     44.16604835	    -11.09458429	     25.69378904	    -14.53408140	     -5.83243689	    -53.02747754	    120.52116808	    -38.01755898	   -139.59768876	      2.44540727	      3.27475146	     25.98041716	    -12.62610104	    -38.85901145	     -4.29092828	    -24.34145515	     12.92294953	     60.49422865	      1.95387976	     16.45999759	     11.50480967	     26.56825853	     12.12108677	     -8.10858853
